# xmcd
#
# Track frame offsets:
#	150
#	17122
#	34165
#	52997
#	73950
#	86750
#	102732
#	118275
#	136540
#	148967
#
# Disc length: 2178 seconds
#
# Revision: 3
# Processed by: cddbd v1.4b41PL2 Copyright (c) Steve Scherf et al.
# Submitted via: CDmax 1.7.6
#
DISCID=9708800a
DTITLE=Lee Roy Parnell - Every Night's A Saturday Night
DYEAR=1900
DGENRE=
TTITLE0=Lucky Me, Lucky You
TTITLE1=You Can't Get There From Here
TTITLE2=One Foot In Front of the Other
TTITLE3=All That Matters Anymore
TTITLE4=Every Night's A Saturday Night
TTITLE5=Tender Touch
TTITLE6=Better Word For Love
TTITLE7=Honky Tonk Night Time Man
TTITLE8=Baton Rouge
TTITLE9=Mama, Screw Your Wig On Tight
EXTD=
EXTT0=
EXTT1=
EXTT2=
EXTT3=
EXTT4=
EXTT5=
EXTT6=
EXTT7=
EXTT8=
EXTT9=
PLAYORDER=
